<svg width="179" height="50" viewBox="0 0 179 50" fill="none" xmlns="http://www.w3.org/2000/svg">
<path d="M23.0055 0.296265L42.8199 11.7363C43.4891 12.1239 43.8638 12.8254 43.8638 13.5476H43.8689V36.4536C43.8689 36.5945 43.8547 36.7314 43.8289 36.8645H13.9697C12.8108 36.8645 11.8716 35.9252 11.8716 34.7664V24.9994C11.8716 23.8405 12.8108 22.9013 13.9697 22.9013H29.8993V27.0962H16.0665V32.6683H39.674V14.7517L30.8049 9.6305L21.9358 4.50926L10.6288 11.0374H2.2583L20.8867 0.282052C21.5663 -0.111988 22.3763 -0.079689 23.0068 0.294972L23.0055 0.296265ZM41.6119 38.9626L22.9835 49.7179C22.304 50.112 21.4939 50.0797 20.8635 49.705L1.04905 38.2649C0.379828 37.8774 0.00516884 37.1758 0.00516884 36.4536H0V13.5476C0 13.4068 0.014211 13.2699 0.0400497 13.1368H29.8993V17.3317H4.19491V35.2483L21.9345 45.4907L33.2415 38.9626H41.6119Z" fill="white"/>
<path d="M74.1431 17.3782C75.0565 17.3782 75.8148 17.4545 76.4156 17.6069C77.0163 17.7594 77.4905 18.01 77.8406 18.3601C78.1907 18.7102 78.4362 19.1663 78.5796 19.7308C78.723 20.2954 78.7953 20.9814 78.7953 21.7876V24.3418C78.7953 24.9154 78.67 25.3146 78.4194 25.5381C78.1687 25.7629 77.7824 25.874 77.2631 25.874H63.6849V26.52C63.6849 27.3623 63.8864 27.9721 64.2895 28.3481C64.6926 28.724 65.4768 28.9126 66.6421 28.9126H77.8548C78.1778 28.9126 78.3393 29.0741 78.3393 29.3971V31.6554C78.3393 31.9784 78.1778 32.1399 77.8548 32.1399H66.2661C65.0466 32.1399 64.0298 32.0417 63.2146 31.844C62.3994 31.6464 61.7457 31.3285 61.2521 30.8893C60.7586 30.45 60.4059 29.8855 60.1902 29.1956C59.9757 28.5057 59.8672 27.6762 59.8672 26.7086V17.9971C59.8672 17.6573 60.145 17.3782 60.486 17.3782H74.1457H74.1431ZM171.905 17.3782H177.63C177.969 17.3782 178.248 17.656 178.248 17.9971V29.9888C178.248 30.419 178.217 30.773 178.154 31.0508C178.091 31.3285 177.984 31.5482 177.831 31.7097C177.679 31.8712 177.477 31.9836 177.227 32.0456C176.976 32.1089 176.653 32.1399 176.259 32.1399H163.461C162.672 32.1399 162.014 32.0637 161.484 31.9112C160.956 31.7588 160.53 31.5301 160.207 31.2252C159.884 30.9203 159.656 30.5263 159.521 30.0418C159.386 29.5573 159.319 28.985 159.319 28.3209V27.0303C159.319 26.4747 159.386 25.9774 159.521 25.5381C159.655 25.0988 159.884 24.7268 160.207 24.4232C160.53 24.1183 160.955 23.8896 161.484 23.7371C162.013 23.5847 162.672 23.5085 163.461 23.5085H174.404V22.9775C174.402 22.5563 174.357 22.1946 174.269 21.8948C174.18 21.5899 174.028 21.3432 173.812 21.1558C173.598 20.9672 173.302 20.829 172.924 20.7386C172.548 20.6494 172.064 20.6042 171.472 20.6042H160.234C159.911 20.6042 159.749 20.4427 159.749 20.1197V17.8614C159.749 17.5384 159.911 17.3769 160.234 17.3769H171.905V17.3782ZM63.7107 23.4813H74.5733C74.8782 23.4813 75.0306 23.3289 75.0306 23.024V21.8948C75.0306 21.3393 74.9144 20.9453 74.6818 20.7114C74.4493 20.4789 74.0178 20.3613 73.3912 20.3613H66.6421C65.4768 20.3613 64.6926 20.5448 64.2895 20.913C63.9717 21.2036 63.7779 21.6468 63.7107 22.2449V23.48V23.4813ZM134.966 17.6056C134.852 17.4674 134.679 17.3782 134.488 17.3782H131.88C131.54 17.3782 131.262 17.656 131.262 17.9958V31.5469C131.262 31.9409 131.469 32.1386 131.881 32.1386H134.516C134.911 32.1386 135.108 31.9409 135.108 31.5469V23.7242C135.109 23.1803 135.155 22.7178 135.243 22.3393C135.332 21.9543 135.489 21.6494 135.713 21.4246C135.938 21.2011 136.237 21.0396 136.613 20.9401C136.989 20.8419 137.465 20.7928 138.038 20.7928H142.609V31.5469C142.609 31.9409 142.807 32.1386 143.201 32.1386H145.836C146.249 32.1386 146.455 31.9409 146.455 31.5469V20.7928H151.188C151.779 20.7928 152.255 20.8419 152.613 20.9401C152.972 21.0383 153.248 21.1998 153.446 21.4246C153.644 21.6494 153.778 21.953 153.849 22.3393C153.921 22.7243 153.956 23.1945 153.956 23.7513V31.5482C153.956 31.9422 154.154 32.1399 154.548 32.1399H157.182C157.576 32.1399 157.774 31.9422 157.774 31.5482V22.8367C157.774 21.869 157.671 21.0396 157.465 20.3497C157.258 19.6598 156.904 19.0952 156.403 18.656C155.901 18.2167 155.243 17.8937 154.426 17.6883C153.611 17.4816 152.602 17.3795 151.402 17.3795H137.662C136.616 17.3795 135.718 17.4557 134.969 17.6069H134.966V17.6056ZM84.1013 17.6056C83.9876 17.4674 83.8145 17.3782 83.6233 17.3782H81.0149C80.6751 17.3782 80.3973 17.656 80.3973 17.9958V31.5469C80.3973 31.9409 80.604 32.1386 81.0162 32.1386H83.6517C84.0458 32.1386 84.2434 31.9409 84.2434 31.5469V23.7242C84.2447 23.1803 84.2899 22.7178 84.3778 22.3393C84.4669 21.9543 84.6245 21.6494 84.848 21.4246C85.0728 21.2011 85.3726 21.0396 85.7485 20.9401C86.1245 20.8419 86.5999 20.7928 87.1735 20.7928H94.3257C94.8993 20.7928 95.3657 20.8419 95.7236 20.9401C96.0827 21.0383 96.3644 21.1998 96.5711 21.4246C96.7778 21.6494 96.916 21.953 96.9884 22.3393C97.0594 22.7243 97.0956 23.1945 97.0956 23.7513V31.5482C97.0956 31.9422 97.2933 32.1399 97.6873 32.1399H100.322C100.716 32.1399 100.913 31.9422 100.913 31.5482V22.8367C100.913 21.869 100.806 21.0396 100.59 20.3497C100.376 19.6598 100.022 19.0952 99.5283 18.656C99.0348 18.2167 98.3772 17.8937 97.5516 17.6883C96.7274 17.4816 95.7145 17.3795 94.513 17.3795H86.7963C85.7498 17.3795 84.8506 17.4557 84.1013 17.6069V17.6056ZM173.623 29.1813C173.91 29.1813 174.112 29.1142 174.228 28.9798C174.344 28.8454 174.402 28.6077 174.402 28.2667V25.8998H164.562C164.006 25.8998 163.616 26.0122 163.393 26.2357C163.169 26.4592 163.057 26.7874 163.057 27.2176V27.7822C163.057 28.2667 163.169 28.6206 163.393 28.8442C163.616 29.0677 164.006 29.1801 164.562 29.1801H173.623V29.1813ZM122.803 17.3782C124.021 17.3782 125.039 17.4816 125.854 17.687C126.669 17.8937 127.328 18.2115 127.831 18.6417C128.333 19.072 128.686 19.6327 128.893 20.3226C129.099 21.0124 129.201 21.8419 129.201 22.8095V32.5959C129.201 33.5817 129.098 34.4201 128.893 35.11C128.686 35.7999 128.332 36.3645 127.831 36.8038C127.329 37.243 126.671 37.566 125.854 37.7714C125.039 37.9781 124.021 38.0802 122.803 38.0802H110.139C109.816 38.0802 109.654 37.9187 109.654 37.5957V35.3374C109.654 35.0144 109.816 34.8529 110.139 34.8529H122.427C123.018 34.8529 123.503 34.8038 123.879 34.7057C124.256 34.6075 124.556 34.446 124.779 34.2212C125.003 33.9964 125.16 33.6928 125.249 33.3065C125.339 32.9215 125.384 32.4422 125.384 31.8673V31.1683H115.274C114.056 31.1683 113.038 31.065 112.223 30.8583C111.408 30.6529 110.753 30.3299 110.26 29.8906C109.768 29.4514 109.413 28.8868 109.198 28.1969C108.984 27.507 108.875 26.6685 108.875 25.6828V22.8599C108.875 21.8742 108.983 21.0357 109.198 20.3458C109.413 19.6559 109.768 19.0913 110.26 18.6521C110.754 18.2128 111.408 17.8898 112.223 17.6844C113.038 17.4777 114.056 17.3756 115.274 17.3756H122.803V17.3782ZM112.719 25.6595C112.719 26.1259 112.764 26.5161 112.853 26.8287C112.942 27.1427 113.1 27.4024 113.324 27.6091C113.548 27.8158 113.848 27.9631 114.224 28.0522C114.6 28.1413 115.075 28.1866 115.649 28.1866H125.383V23.1583C125.383 22.2088 125.181 21.5357 124.778 21.1416C124.375 20.7476 123.591 20.5499 122.425 20.5499H115.65C115.077 20.5499 114.601 20.5952 114.225 20.6843C113.848 20.7734 113.548 20.922 113.325 21.1274C113.101 21.3328 112.944 21.5977 112.855 21.9207C112.765 22.2437 112.72 22.6287 112.72 23.077V25.6582H112.719V25.6595ZM106.305 17.3782C106.699 17.3782 106.896 17.5849 106.896 17.9971V31.5482C106.896 31.9422 106.7 32.1399 106.305 32.1399H103.669C103.275 32.1399 103.077 31.9422 103.077 31.5482V17.9971C103.077 17.5849 103.275 17.3782 103.669 17.3782H106.305ZM106.305 11.9198C106.699 11.9198 106.896 12.1175 106.896 12.5115V15.0657C106.896 15.4778 106.7 15.6845 106.305 15.6845H103.669C103.257 15.6845 103.05 15.4778 103.05 15.0657V12.5115C103.05 12.1175 103.257 11.9198 103.669 11.9198H106.305Z" fill="white"/>
</svg>
