<svg width="751" height="211" viewBox="0 0 751 211" fill="none" xmlns="http://www.w3.org/2000/svg">
<path d="M96.9129 1.24805L180.383 49.4405C183.202 51.0733 184.781 54.0285 184.781 57.0708H184.802V153.565C184.802 154.158 184.742 154.735 184.634 155.295H58.8487C53.9669 155.295 50.0103 151.339 50.0103 146.457V105.312C50.0103 100.43 53.9669 96.4738 58.8487 96.4738H125.954V114.145H67.6818V137.618H167.131V62.1431L129.769 40.5694L92.4066 18.9957L44.7747 46.4962H9.51333L87.9874 1.18817C90.8501 -0.471761 94.2625 -0.335698 96.9184 1.2426L96.9129 1.24805ZM175.294 164.134L96.8204 209.442C93.9577 211.102 90.5453 210.966 87.8894 209.387L4.41923 161.195C1.60006 159.562 0.0217743 156.607 0.0217743 153.565H0V57.0708C0 56.4776 0.0598651 55.9007 0.168713 55.3401H125.954V73.0116H17.6715V148.487L92.4012 191.634L140.033 164.134H175.294Z" fill="url(#paint0_linear_10394_110373)"/>
<path d="M312.342 73.2075C316.189 73.2075 319.384 73.5287 321.915 74.1709C324.446 74.8131 326.443 75.8689 327.918 77.3438C329.393 78.8187 330.427 80.7398 331.031 83.1182C331.635 85.4965 331.94 88.3864 331.94 91.7825V102.542C331.94 104.959 331.412 106.64 330.356 107.582C329.3 108.529 327.673 108.997 325.485 108.997H268.285V111.718C268.285 115.266 269.134 117.835 270.832 119.419C272.531 121.003 275.834 121.797 280.743 121.797H327.978C329.338 121.797 330.019 122.478 330.019 123.838V133.352C330.019 134.712 329.338 135.392 327.978 135.392H279.159C274.022 135.392 269.739 134.979 266.304 134.146C262.87 133.313 260.116 131.975 258.037 130.124C255.958 128.274 254.473 125.895 253.564 122.989C252.66 120.083 252.203 116.589 252.203 112.513V75.8145C252.203 74.3831 253.373 73.2075 254.81 73.2075H312.353H312.342ZM724.174 73.2075H748.289C749.721 73.2075 750.896 74.3777 750.896 75.8145V126.331C750.896 128.143 750.766 129.634 750.499 130.805C750.232 131.975 749.78 132.9 749.138 133.58C748.496 134.26 747.647 134.734 746.591 134.995C745.535 135.262 744.175 135.392 742.515 135.392H688.602C685.277 135.392 682.507 135.071 680.276 134.429C678.05 133.787 676.254 132.824 674.893 131.539C673.532 130.255 672.574 128.595 672.003 126.554C671.437 124.513 671.154 122.102 671.154 119.305V113.868C671.154 111.528 671.437 109.432 672.003 107.582C672.569 105.731 673.532 104.164 674.893 102.885C676.254 101.601 678.044 100.637 680.276 99.9951C682.501 99.3529 685.277 99.0318 688.602 99.0318H734.7V96.7949C734.694 95.0207 734.504 93.4968 734.134 92.2342C733.758 90.9498 733.116 89.9103 732.207 89.1211C731.303 88.3265 730.057 87.7442 728.468 87.3632C726.884 86.9877 724.843 86.7972 722.351 86.7972H675.007C673.647 86.7972 672.966 86.1169 672.966 84.7563V75.243C672.966 73.8824 673.647 73.2021 675.007 73.2021H724.174V73.2075ZM268.394 98.9175H314.154C315.438 98.9175 316.081 98.2753 316.081 96.9909V92.2342C316.081 89.894 315.591 88.234 314.611 87.2489C313.632 86.2693 311.814 85.7741 309.174 85.7741H280.743C275.834 85.7741 272.531 86.5469 270.832 88.098C269.494 89.3225 268.677 91.1892 268.394 93.7091V98.912V98.9175ZM568.565 74.1654C568.086 73.5831 567.356 73.2075 566.551 73.2075H555.563C554.131 73.2075 552.961 74.3777 552.961 75.809V132.894C552.961 134.554 553.832 135.387 555.568 135.387H566.671C568.331 135.387 569.163 134.554 569.163 132.894V99.9406C569.169 97.6494 569.359 95.701 569.729 94.1064C570.105 92.4846 570.769 91.2001 571.71 90.2532C572.657 89.3116 573.92 88.6313 575.504 88.2123C577.087 87.7986 579.09 87.5918 581.507 87.5918H600.762V132.894C600.762 134.554 601.595 135.387 603.255 135.387H614.357C616.093 135.387 616.964 134.554 616.964 132.894V87.5918H636.9C639.392 87.5918 641.395 87.7986 642.903 88.2123C644.415 88.6259 645.58 89.3062 646.413 90.2532C647.246 91.2001 647.812 92.4791 648.111 94.1064C648.416 95.7282 648.563 97.7093 648.563 100.055V132.9C648.563 134.56 649.395 135.392 651.055 135.392H662.152C663.812 135.392 664.645 134.56 664.645 132.9V96.2017C664.645 92.1253 664.21 88.6313 663.344 85.7251C662.473 82.8188 660.982 80.4405 658.871 78.5901C656.753 76.7397 653.983 75.3791 650.544 74.5137C647.109 73.643 642.859 73.213 637.803 73.213H579.923C575.515 73.213 571.732 73.5341 568.576 74.1709H568.565V74.1654ZM354.292 74.1654C353.813 73.5831 353.084 73.2075 352.278 73.2075H341.29C339.859 73.2075 338.688 74.3777 338.688 75.809V132.894C338.688 134.554 339.559 135.387 341.295 135.387H352.398C354.058 135.387 354.89 134.554 354.89 132.894V99.9406C354.896 97.6494 355.086 95.701 355.456 94.1064C355.832 92.4846 356.496 91.2001 357.437 90.2532C358.384 89.3116 359.647 88.6313 361.231 88.2123C362.815 87.7986 364.817 87.5918 367.234 87.5918H397.363C399.779 87.5918 401.744 87.7986 403.252 88.2123C404.765 88.6259 405.951 89.3062 406.822 90.2532C407.693 91.2001 408.275 92.4791 408.58 94.1064C408.879 95.7282 409.031 97.7093 409.031 100.055V132.9C409.031 134.56 409.864 135.392 411.524 135.392H422.621C424.281 135.392 425.114 134.56 425.114 132.9V96.2017C425.114 92.1253 424.662 88.6313 423.753 85.7251C422.85 82.8188 421.359 80.4405 419.28 78.5901C417.201 76.7397 414.43 75.3791 410.953 74.5137C407.48 73.643 403.214 73.213 398.152 73.213H365.645C361.236 73.213 357.448 73.5341 354.292 74.1709V74.1654ZM731.412 122.929C732.621 122.929 733.47 122.646 733.959 122.08C734.449 121.514 734.694 120.513 734.694 119.076V109.106H693.239C690.899 109.106 689.255 109.579 688.314 110.521C687.372 111.462 686.899 112.845 686.899 114.657V117.035C686.899 119.076 687.372 120.567 688.314 121.509C689.255 122.45 690.899 122.924 693.239 122.924H731.412V122.929ZM517.324 73.2075C522.457 73.2075 526.745 73.6429 530.179 74.5083C533.614 75.3791 536.389 76.7179 538.506 78.5302C540.623 80.3426 542.109 82.7046 542.98 85.6108C543.851 88.5171 544.281 92.0111 544.281 96.0874V137.314C544.281 141.466 543.845 144.998 542.98 147.905C542.109 150.811 540.618 153.189 538.506 155.04C536.395 156.89 533.619 158.251 530.179 159.116C526.745 159.987 522.457 160.417 517.324 160.417H463.978C462.617 160.417 461.937 159.736 461.937 158.376V148.862C461.937 147.502 462.617 146.822 463.978 146.822H515.741C518.233 146.822 520.274 146.615 521.858 146.201C523.447 145.787 524.71 145.107 525.651 144.16C526.593 143.213 527.257 141.934 527.632 140.307C528.008 138.685 528.198 136.666 528.198 134.244V131.3H485.612C480.479 131.3 476.191 130.864 472.757 129.994C469.322 129.128 466.563 127.768 464.49 125.917C462.416 124.067 460.919 121.688 460.016 118.782C459.112 115.876 458.655 112.344 458.655 108.191V96.2997C458.655 92.1471 459.107 88.615 460.016 85.7088C460.919 82.8025 462.416 80.4242 464.49 78.5737C466.569 76.7233 469.322 75.3627 472.757 74.4974C476.191 73.6266 480.479 73.1966 485.612 73.1966H517.324V73.2075ZM474.846 108.093C474.846 110.058 475.037 111.702 475.413 113.019C475.788 114.341 476.452 115.435 477.394 116.306C478.34 117.177 479.603 117.797 481.187 118.173C482.771 118.548 484.773 118.739 487.19 118.739H528.193V97.5569C528.193 93.5567 527.344 90.7212 525.646 89.0613C523.948 87.4013 520.644 86.5686 515.735 86.5686H487.195C484.779 86.5686 482.776 86.7591 481.192 87.1347C479.603 87.5102 478.341 88.1361 477.399 89.0014C476.457 89.8668 475.793 90.9825 475.418 92.3431C475.042 93.7037 474.852 95.3255 474.852 97.214V108.088H474.846V108.093ZM447.825 73.2075C449.485 73.2075 450.318 74.0784 450.318 75.8145V132.9C450.318 134.56 449.49 135.392 447.825 135.392H436.722C435.062 135.392 434.23 134.56 434.23 132.9V75.8145C434.23 74.0784 435.062 73.2075 436.722 73.2075H447.825ZM447.825 50.2134C449.485 50.2134 450.318 51.0461 450.318 52.706V63.4657C450.318 65.2018 449.49 66.0726 447.825 66.0726H436.722C434.986 66.0726 434.116 65.2018 434.116 63.4657V52.706C434.116 51.0461 434.986 50.2134 436.722 50.2134H447.825Z" fill="#23153D"/>
<defs>
<linearGradient id="paint0_linear_10394_110373" x1="30.7387" y1="149.118" x2="190.909" y2="35.3447" gradientUnits="userSpaceOnUse">
<stop stop-color="#2186EF"/>
<stop offset="0.8" stop-color="#9D40C5"/>
</linearGradient>
</defs>
</svg>
