<svg width="24" height="24" viewBox="0 0 24 24" fill="none" xmlns="http://www.w3.org/2000/svg">
<path d="M2.35547 7.714L9.33547 12.368C10.2985 13.009 10.7795 13.33 11.2995 13.455C11.7595 13.565 12.2385 13.565 12.6975 13.455C13.2175 13.33 13.6985 13.009 14.6615 12.368L21.6415 7.714M7.15547 19.5H16.8415C18.5215 19.5 19.3615 19.5 20.0035 19.173C20.5676 18.8852 21.0261 18.4263 21.3135 17.862C21.6415 17.22 21.6415 16.38 21.6415 14.7V9.3C21.6415 7.62 21.6415 6.78 21.3145 6.138C21.0269 5.57354 20.5679 5.11462 20.0035 4.827C19.3615 4.5 18.5215 4.5 16.8415 4.5H7.15547C5.47547 4.5 4.63547 4.5 3.99347 4.827C3.42938 5.11479 2.97082 5.57369 2.68347 6.138C2.35547 6.78 2.35547 7.62 2.35547 9.3V14.7C2.35547 16.38 2.35547 17.22 2.68247 17.862C2.97008 18.4265 3.42901 18.8854 3.99347 19.173C4.63547 19.5 5.47547 19.5 7.15547 19.5Z" stroke="#002E91" stroke-width="1.5" stroke-linecap="round" stroke-linejoin="round"/>
</svg>
