<svg width="32" height="32" viewBox="0 0 32 32" fill="none" xmlns="http://www.w3.org/2000/svg">
<path d="M16.001 8.5C18.6661 8.5 20.8348 10.668 20.835 13.333C20.835 15.9982 18.6662 18.167 16.001 18.167C13.3359 18.1668 11.168 15.9981 11.168 13.333C11.1681 10.6681 13.336 8.50018 16.001 8.5ZM16.001 10.167C14.2544 10.1672 12.8351 11.5865 12.835 13.333C12.835 15.0797 14.2543 16.4998 16.001 16.5C17.7478 16.5 19.168 15.0798 19.168 13.333C19.1678 11.5863 17.7477 10.167 16.001 10.167Z" fill="white" stroke="white"/>
<path d="M15.999 3.16663C21.6041 3.16674 26.165 7.7285 26.165 13.3336V13.3356C26.1836 17.4489 23.9053 21.1995 21.5059 23.9957C19.1155 26.7813 16.6687 28.5463 16.4834 28.6774L16.4824 28.6783C16.3413 28.7788 16.1722 28.8326 15.999 28.8326C15.8259 28.8326 15.6567 28.7787 15.5156 28.6783L15.5146 28.6774L14.9873 28.2819C14.1089 27.5997 12.2847 26.0852 10.4922 23.9957C8.09269 21.1987 5.81351 17.4457 5.83203 13.3287V13.3268C5.83203 7.72846 10.3936 3.16663 15.999 3.16663ZM15.999 4.83362C11.3117 4.83362 7.50043 8.64374 7.49902 13.3307C7.48426 16.4519 9.02183 19.3691 10.7842 21.692C12.5529 24.0233 14.5938 25.817 15.6836 26.7018L15.999 26.9576L16.3135 26.7018C17.4041 25.8175 19.4453 24.0243 21.2139 21.694C22.9209 19.4447 24.4176 16.6385 24.4961 13.6295L24.499 13.3375C24.4977 8.64417 20.6865 4.83373 15.999 4.83362Z" fill="white" stroke="white"/>
</svg>
