<svg width="16" height="16" viewBox="0 0 16 16" fill="none" xmlns="http://www.w3.org/2000/svg">
<path d="M0.341719 7.90425C0.341344 9.24856 0.695344 10.5612 1.36847 11.7181L0.277344 15.6711L4.35434 14.6104C5.48199 15.2195 6.74543 15.5387 8.02934 15.5388H8.03272C12.2712 15.5388 15.7213 12.1166 15.7232 7.91026C15.724 5.872 14.9247 3.95535 13.4726 2.51336C12.0207 1.0715 10.0898 0.277023 8.03241 0.276093C3.79347 0.276093 0.343531 3.69811 0.341781 7.90425" fill="url(#paint0_linear_10394_88673)"/>
<path d="M0.066875 7.90177C0.0664375 9.29445 0.433125 10.654 1.13025 11.8524L0 15.9471L4.22319 14.8484C5.38681 15.4779 6.69694 15.8098 8.03006 15.8103H8.0335C12.424 15.8103 15.9981 12.265 16 7.90809C16.0008 5.79659 15.1727 3.81104 13.6687 2.3174C12.1646 0.823938 10.1646 0.000868217 8.0335 0C3.64225 0 0.068625 3.54481 0.066875 7.90177ZM2.58194 11.646L2.42425 11.3976C1.76137 10.3518 1.4115 9.14326 1.412 7.90226C1.41337 4.28087 4.38363 1.33457 8.036 1.33457C9.80475 1.33532 11.467 2.01947 12.7172 3.26078C13.9674 4.5022 14.6554 6.15243 14.6549 7.9076C14.6533 11.529 11.683 14.4757 8.0335 14.4757H8.03088C6.84256 14.475 5.67712 14.1584 4.66075 13.56L4.41888 13.4177L1.91275 14.0696L2.58194 11.646Z" fill="url(#paint1_linear_10394_88673)"/>
<path d="M6.04125 4.59831C5.89212 4.26944 5.73519 4.2628 5.59337 4.25704C5.47725 4.25208 5.3445 4.25245 5.21187 4.25245C5.07912 4.25245 4.86344 4.302 4.68112 4.49952C4.49862 4.69722 3.98438 5.17499 3.98438 6.14671C3.98438 7.11843 4.69769 8.0576 4.79713 8.1895C4.89669 8.32116 6.17419 10.3791 8.19744 11.1708C9.87894 11.8287 10.2211 11.6978 10.5861 11.6649C10.9511 11.632 11.7638 11.1872 11.9296 10.726C12.0956 10.2649 12.0956 9.86956 12.0458 9.78696C11.9961 9.70466 11.8633 9.65524 11.6642 9.55651C11.4652 9.45778 10.4865 8.97989 10.3041 8.91397C10.1216 8.84811 9.98887 8.81524 9.85612 9.01301C9.72337 9.21046 9.34219 9.65524 9.226 9.78696C9.10994 9.91899 8.99375 9.93542 8.79475 9.83663C8.59556 9.73753 7.9545 9.52922 7.19394 8.85642C6.60219 8.33288 6.20269 7.68637 6.08656 7.4886C5.97044 7.29115 6.07413 7.18411 6.17394 7.08569C6.26338 6.99719 6.37306 6.85505 6.47269 6.73977C6.57194 6.62442 6.60506 6.54212 6.67144 6.4104C6.73787 6.27856 6.70463 6.16321 6.65494 6.06442C6.60506 5.96563 6.21825 4.98882 6.04125 4.59831Z" fill="white"/>
<defs>
<linearGradient id="paint0_linear_10394_88673" x1="772.568" y1="1539.78" x2="772.568" y2="0.276093" gradientUnits="userSpaceOnUse">
<stop stop-color="#1FAF38"/>
<stop offset="1" stop-color="#60D669"/>
</linearGradient>
<linearGradient id="paint1_linear_10394_88673" x1="800" y1="1594.71" x2="800" y2="0" gradientUnits="userSpaceOnUse">
<stop stop-color="#F9F9F9"/>
<stop offset="1" stop-color="white"/>
</linearGradient>
</defs>
</svg>
