<svg width="503" height="344" viewBox="0 0 503 344" fill="none" xmlns="http://www.w3.org/2000/svg">
<g clip-path="url(#clip0_10394_89196)">
<path d="M112.844 13.0244C116.078 15.3512 119.202 17.5437 122.269 19.8145C143.879 35.8179 161.354 55.7818 177.203 77.2901C180.313 81.5117 183.251 85.8609 186.293 90.1339C187.89 92.3782 187.124 93.0416 184.609 93.2495C181.017 93.5465 178.624 92.4083 176.482 89.3049C163.037 69.8284 148.174 51.5601 130.298 35.8807C121.341 28.0251 112.015 20.7648 101.327 15.383C97.9344 13.6746 90.1289 16.7852 88.806 20.4159C88.1912 22.1031 89.5489 22.6291 90.4838 23.3389C96.862 28.1811 102.853 33.4957 108.497 39.1381C123.462 54.0977 136.737 70.4899 148.723 87.9185C149.695 89.3319 151.733 90.5869 150.768 92.7175C150.26 93.8401 143.791 93.2702 142.663 91.969C141.031 90.0858 139.538 88.0678 138.117 86.0167C127.845 71.191 116.251 57.453 103.545 44.6869C98.1834 39.3004 92.2094 34.5256 86.5472 29.4357C84.3687 27.4774 83.175 27.7659 82.0318 30.6124C76.6947 43.9019 75.5583 57.8013 76.2767 71.8537C77.1204 88.3574 80.0433 104.583 84.2503 120.568C93.7565 156.688 108.364 190.678 126.889 223.053C135.714 238.475 145.406 253.334 156.134 267.47C169.221 284.713 183.656 300.764 200.469 314.531C203.93 317.365 204.887 317.121 206.521 312.788C211.746 298.94 212.546 284.529 211.544 269.962C210.962 261.497 210.004 253.057 208.354 244.713C208.018 243.018 208.004 241.24 210.321 241.072C212.457 240.917 215.123 240.173 215.662 243.505C216.638 249.542 217.726 255.573 218.375 261.649C219.866 275.613 219.924 289.565 217.107 303.413C216.006 308.828 214.274 314.045 211.81 318.977C210.75 321.1 210.979 322.421 213.078 323.548C216.159 325.201 219.243 326.865 222.204 328.719C224.953 330.439 227.296 329.902 229.82 328.216C238.673 322.301 242.584 313.307 244.8 303.519C249.18 284.161 247.399 264.783 244.177 245.463C243.478 241.27 244.445 240.321 248.648 240.985C250.67 241.304 251.233 242.613 251.585 244.323C252.919 250.816 253.934 257.379 254.241 263.979C255.136 283.247 255.893 302.531 246.424 320.401C244.167 324.66 241.214 328.302 237.75 331.591C237.144 332.166 235.942 332.458 236.138 333.467C236.375 334.688 237.656 334.528 238.597 334.706C256.602 338.108 268.394 331.498 274.747 314.257C277.707 306.226 279.013 297.838 279.346 289.3C279.924 274.497 278.428 259.871 275.6 245.357C275.268 243.651 274.028 241.412 277.17 241.043C279.693 240.747 282.351 240.53 282.908 244.103C283.85 250.147 285.055 256.162 285.715 262.237C287.45 278.193 287.989 294.134 283.875 309.882C281.765 317.958 278.56 325.487 272.924 331.785C262.747 343.159 249.805 345.117 235.889 341.632C229.296 339.982 222.948 338.455 216.106 339.2C210.321 339.83 204.647 338.764 199.151 336.863C197.681 336.355 196.265 336.239 194.785 336.907C183.585 341.963 172.357 340.769 161.226 336.776C146.896 331.635 134.669 323.013 123.236 313.188C100.197 293.386 81.6788 269.709 65.2683 244.366C43.0819 210.104 25.7162 173.519 13.6093 134.469C8.15451 116.875 4.03945 99.0001 2.08894 80.7033C0.388092 64.7485 0.262493 48.7665 4.71992 33.1143C7.54739 23.1856 11.9364 14.1383 20.6528 7.97646C31.0733 0.60986 42.5514 0.239361 54.3439 3.68685C57.671 4.6595 60.5464 4.57175 63.7479 3.28957C73.0212 -0.424343 82.4431 0.538609 91.6503 3.47579C95.7918 4.79694 99.6703 5.35158 104.056 4.88277C116.008 3.60522 127.043 7.04473 137.485 12.6604C159.425 24.4589 176.797 41.5674 192.907 60.1795C201.095 69.639 208.489 79.6898 215.701 89.888C216.257 90.6733 217.323 91.3925 216.835 92.4718C216.326 93.5986 215.075 93.0708 214.135 93.1997C210.548 93.6914 208.254 92.2706 206.068 89.2239C189.693 66.4057 171.668 45.073 148.805 28.3637C139.168 21.3212 128.929 15.3452 117.023 12.9047C115.779 12.6497 114.487 11.7438 112.844 13.0244ZM186.389 331.629C183.313 329.893 180.986 328.723 178.803 327.326C159.785 315.155 143.789 299.617 129.363 282.413C108.475 257.502 91.1705 230.211 76.5502 201.225C66.2409 180.786 57.2867 159.747 50.5056 137.854C41.7884 109.709 34.9624 81.2227 37.1522 51.4057C38.1792 37.4215 40.789 23.8597 50.3951 12.7685C51.6926 11.2703 51.5564 10.4249 49.5334 9.98604C38.7733 7.65172 26.5169 9.82298 19.2214 19.6488C13.2405 27.7041 10.8024 36.9236 9.50715 46.4764C7.4266 61.8209 8.70606 77.1368 11.2031 92.3494C17.1484 128.57 29.9249 162.521 46.0161 195.288C60.0442 223.854 76.7064 250.804 97.0371 275.387C108.047 288.699 119.875 301.222 133.397 312.011C144.802 321.112 156.942 328.975 171.583 331.954C176.206 332.895 180.833 333.621 186.389 331.629ZM43.9888 59.9798C44.3455 75.2147 45.8618 89.0032 48.7435 102.565C54.7413 130.792 64.3104 157.861 76.521 183.975C91.2246 215.421 108.796 245.133 130.644 272.22C143.947 288.714 158.463 303.95 175.79 316.301C181.177 320.141 186.668 323.845 192.781 326.507C195.421 327.656 197.565 326.965 198.891 324.621C200.187 322.332 197.684 321.604 196.513 320.675C179.37 307.079 164.893 290.96 151.628 273.664C129.382 244.656 111.22 213.247 96.9226 179.649C82.7276 146.292 71.6449 112.069 69.1899 75.5236C68.0272 58.2155 69.0676 41.3403 76.3627 25.3126C77.2253 23.4175 76.7896 22.4316 75.0772 21.3676C71.2505 18.9899 67.3286 16.8179 63.3093 14.7834C61.0053 13.6172 59.3166 14.04 57.6259 15.7753C54.3608 19.1267 51.8353 22.9464 49.9646 27.2317C45.2122 38.118 44.687 49.7483 43.9888 59.9798ZM69.4837 9.39223C73.5125 11.8406 76.6754 13.7521 79.8259 15.684C80.7414 16.2454 81.6523 16.5474 82.5704 15.7675C84.1794 14.4006 85.7908 13.0338 87.3449 11.6058C88.289 10.7383 87.9259 9.94753 86.8194 9.74324C81.3779 8.73856 75.9235 7.59714 69.4837 9.39223Z" fill="#9CDAF9"/>
<path d="M172.773 117.917C167.497 129.486 162.195 141.042 156.96 152.63C154.84 157.324 148.839 159.669 144.081 157.609C142.569 156.955 142.667 155.687 142.614 154.472C142.144 143.617 141.689 132.76 141.251 121.904C141.005 115.788 140.891 109.666 140.535 103.557C140.343 100.27 141.303 98.8226 144.909 98.8962C152.03 99.0416 151.779 98.8728 152.138 106.025C152.638 116.004 152.436 125.991 153.361 136.208C155.744 130.974 158.143 125.746 160.505 120.502C163.173 114.577 165.92 108.684 168.411 102.685C169.596 99.8309 171.347 98.7686 174.421 98.9181C183.483 99.3588 182.66 96.935 183.285 107.689C183.828 117.031 183.3 126.423 184.298 135.891C185.338 135.645 185.383 134.681 185.683 134.001C190.268 123.596 194.825 113.178 199.389 102.763C200.809 99.5226 207.787 97.3264 210.82 99.2566C212.557 100.362 211.282 101.737 210.785 102.867C206.661 112.246 202.478 121.599 198.302 130.955C194.942 138.486 191.392 145.939 188.279 153.571C186.922 156.898 185.033 158.032 181.522 157.928C174.348 157.717 174.295 157.89 174.268 150.786C174.225 139.923 174.257 129.059 174.257 118.195C173.762 118.102 173.267 118.01 172.773 117.917Z" fill="#303091"/>
<path d="M382.653 134.78C384.65 124.497 386.647 114.214 388.644 103.931C389.486 99.5926 395.364 96.9715 399.15 99.3066C400.84 100.349 400.062 101.992 399.797 103.384C397.388 116.017 394.932 128.641 392.489 141.268C391.611 145.802 390.668 150.326 389.873 154.875C389.507 156.971 388.463 157.967 386.337 157.84C385.715 157.803 385.088 157.847 384.463 157.851C378.538 157.886 378.512 157.895 376.456 152.362C372.888 142.763 369.367 133.146 365.79 123.55C365.456 122.655 365.443 121.558 364.264 120.786C362.24 131.316 360.198 141.709 358.259 152.12C357.312 157.204 352.241 159.921 347.633 157.632C345.698 156.671 346.668 154.977 346.916 153.654C349.149 141.75 351.477 129.864 353.766 117.97C354.733 112.944 355.762 107.928 356.594 102.88C357.057 100.073 358.289 98.8374 361.301 98.9143C369.397 99.1211 368.085 98.3449 370.623 105.176C373.754 113.606 376.887 122.035 380.032 130.46C380.589 131.953 381.207 133.423 381.797 134.903C382.083 134.862 382.368 134.821 382.653 134.78Z" fill="#303091"/>
<path d="M471.808 199.55C470.928 200.63 471.361 201.916 471.356 203.088C471.313 211.961 471.209 220.837 471.392 229.707C471.471 233.545 469.644 234.383 466.329 234.233C463.343 234.099 460.604 234.432 460.645 229.942C460.799 212.946 460.748 195.949 460.676 178.952C460.663 176.074 461.743 175.065 464.623 174.887C469.161 174.606 472.154 175.631 474.394 180.247C479.396 190.556 485.155 200.499 490.766 210.888C491.936 209.467 491.545 208.076 491.55 206.832C491.59 197.709 491.538 188.586 491.589 179.463C491.613 175.255 492.109 175.07 497.341 174.911C500.707 174.808 502.331 175.65 502.293 179.471C502.131 196.092 502.237 212.714 502.217 229.336C502.212 233.81 501.817 233.888 497.232 234.263C492.738 234.632 490.218 232.938 488.191 228.87C483.513 219.484 478.306 210.362 473.303 201.138C472.962 200.51 472.738 199.738 471.808 199.55Z" fill="#E92026"/>
<path d="M453.524 204.322C453.7 213.356 451.968 221.381 445.901 227.947C439.471 234.905 431.317 236.312 422.526 234.516C413.18 232.606 407.429 226.343 404.825 217.483C402.167 208.437 402.099 199.249 405.446 190.232C409.337 179.748 417.28 174.114 428.228 174.114C439.17 174.115 447.353 179.744 451.263 190.008C453.067 194.745 453.705 199.676 453.524 204.322ZM415.072 204.533C415.022 208.418 415.03 212.29 416.635 215.953C418.889 221.098 423.769 224.422 428.913 224.274C433.736 224.135 438.686 220.378 440.309 215.334C442.54 208.397 442.854 201.397 440.562 194.367C438.755 188.824 434.166 185.151 428.736 185.039C423.461 184.929 418.762 188.247 416.578 193.482C415.09 197.05 414.979 200.77 415.072 204.533Z" fill="#E92026"/>
<path d="M189.194 205.229C189.146 197.799 190.223 191.211 193.834 185.248C198.988 176.734 206.862 173.557 216.421 174.227C226.322 174.922 233.331 179.984 236.849 189.3C241.298 201.082 241.293 212.881 234.914 223.969C229.467 233.437 220.429 236.311 210.132 234.86C200.625 233.52 194.482 227.597 191.294 218.649C189.689 214.143 189.075 209.438 189.194 205.229ZM227.932 204.228C227.762 202.012 227.739 199.501 227.349 197.049C226.254 190.168 222.183 186.083 215.762 185.186C210.48 184.449 204.929 187.417 202.846 192.767C199.744 200.734 199.69 208.855 203.213 216.765C205.333 221.523 209.265 224.11 214.401 224.195C219.615 224.282 223.23 221.359 225.722 216.896C227.896 213.002 227.497 208.684 227.932 204.228Z" fill="#E92026"/>
<path d="M163.119 235.099C150.725 235.101 144.003 229.746 141.622 218.603C140.894 215.196 142.064 213.909 145.294 213.89C146.043 213.886 146.814 213.917 147.536 213.756C150.567 213.082 152.174 213.724 153.063 217.243C154.723 223.81 162.392 226.506 168.177 222.984C170.69 221.454 172.145 219.233 171.985 216.163C171.835 213.283 169.704 212.045 167.465 211.237C163.83 209.925 160.044 209.034 156.38 207.79C146.015 204.273 141.189 196.433 143.39 186.864C145.095 179.449 150.4 175.306 159.559 174.237C171.252 172.871 179.945 178.72 181.682 188.972C182.152 191.75 181.302 193.039 178.473 193.001C176.974 192.981 175.47 192.975 173.974 193.061C171.926 193.179 170.928 192.293 170.157 190.328C168.05 184.957 160.851 182.986 156.051 186.257C153.041 188.308 153.392 192.279 156.82 194.135C161.147 196.478 166.032 197.25 170.614 198.887C177.658 201.403 182.381 205.864 183.257 213.61C184.05 220.621 182.485 226.833 176.584 231.286C172.521 234.352 167.776 235.288 163.119 235.099Z" fill="#E92026"/>
<path d="M290.436 197.608C290.436 191.366 290.532 185.121 290.393 178.882C290.327 175.931 291.542 174.74 294.383 174.958C294.879 174.996 295.381 174.958 295.88 174.958C301.627 174.949 301.804 175.117 301.812 180.777C301.827 191.638 301.794 202.5 301.865 213.361C301.891 217.376 302.736 221.042 306.782 223.148C313.32 226.551 320.279 222.79 320.411 215.449C320.619 203.842 320.484 192.229 320.577 180.619C320.592 178.744 319.728 176.147 322.21 175.373C324.925 174.527 327.903 174.536 330.678 175.501C331.907 175.928 331.953 177.271 331.932 178.402C331.681 192.121 332.719 205.867 331.254 219.56C330.44 227.167 326.375 232.246 318.883 234.266C313.852 235.623 308.688 235.655 303.692 234.376C295.98 232.402 291.052 225.506 290.563 216.708C290.535 216.21 290.515 215.71 290.514 215.211C290.511 209.343 290.512 203.476 290.512 197.608C290.487 197.608 290.461 197.608 290.436 197.608Z" fill="#E92026"/>
<path d="M334.385 157.853C330.71 157.85 328.623 156.031 328.124 152.398C327.45 147.492 324.585 145.038 319.53 145.037C316.283 145.036 313.034 145.129 309.792 145.013C307.486 144.931 305.984 145.852 305.077 147.92C304.626 148.948 303.951 149.901 303.643 150.965C301.849 157.156 297.577 158.71 291.632 157.927C289.009 157.581 288.212 156.97 289.533 154.503C291.891 150.102 294.181 145.664 296.475 141.23C303.07 128.479 309.726 115.759 316.186 102.94C317.675 99.9855 319.501 98.8062 322.871 98.8907C333.627 99.1604 331.096 98.0098 332.636 107.548C335.022 122.326 337.054 137.16 339.307 151.959C340.202 157.844 340.263 157.86 334.385 157.853ZM322.957 114.618C322.618 114.611 322.279 114.604 321.939 114.597C319.079 120.263 316.235 125.938 313.349 131.592C312.508 133.241 312.734 134.278 314.762 134.315C317.633 134.367 320.505 134.339 323.376 134.311C324.677 134.299 325.649 133.729 325.456 132.288C324.665 126.392 323.797 120.507 322.957 114.618Z" fill="#303091"/>
<path d="M259.673 109.171C256.423 109.172 253.17 109.273 249.926 109.138C247.587 109.042 246.528 109.952 246.259 112.28C245.988 114.629 245.461 116.958 244.903 119.262C244.336 121.604 245.177 122.432 247.526 122.399C253.399 122.317 259.274 122.357 265.148 122.391C269.732 122.418 269.979 122.732 269.219 127.084C268.524 131.061 266.151 133.05 262.098 133.05C256.599 133.052 251.097 133.149 245.601 133.018C243.109 132.959 242.013 133.957 241.595 136.349C240.584 142.13 239.253 147.859 238.357 153.656C237.85 156.938 236.307 157.957 233.092 157.917C225.601 157.822 225.547 157.949 226.928 150.82C230.038 134.755 233.274 118.715 236.283 102.632C236.807 99.8301 237.962 98.8951 240.724 98.9255C250.846 99.037 260.971 99.0325 271.094 98.9278C274.112 98.8966 275.044 99.8224 274.435 102.92C273.211 109.137 273.358 109.167 267.172 109.169C264.672 109.17 262.173 109.169 259.673 109.171Z" fill="#303091"/>
<path d="M353.426 209.785C353.424 203.165 353.329 196.542 353.466 189.925C353.529 186.875 352.376 185.508 349.309 185.692C347.692 185.79 346.054 185.808 344.441 185.67C342.536 185.507 339.93 186.639 338.92 184.56C337.726 182.103 338.183 179.148 338.686 176.457C338.965 174.966 340.559 174.992 341.801 174.99C353.293 174.969 364.784 174.998 376.276 174.964C378.83 174.956 379.916 176.172 379.84 178.64C379.798 180.013 379.829 181.387 379.808 182.761C379.777 184.747 378.795 185.721 376.77 185.685C374.647 185.647 372.523 185.693 370.4 185.698C366.37 185.706 364.354 187.666 364.351 191.577C364.348 204.194 364.359 216.81 364.342 229.426C364.336 234.076 364.134 234.22 358.629 234.197C353.623 234.175 353.446 234.025 353.433 229.271C353.415 222.776 353.429 216.28 353.426 209.785Z" fill="#E92026"/>
<path d="M246.999 204.593C247.002 196.468 247.112 188.341 246.948 180.22C246.881 176.874 247.948 175.227 251.445 175.619C252.185 175.702 252.952 175.702 253.692 175.616C257.287 175.193 258.494 176.761 258.449 180.34C258.292 192.838 258.385 205.338 258.398 217.838C258.403 222.897 258.519 223.003 263.726 223.019C268.976 223.036 274.228 223.119 279.475 222.999C282.611 222.928 283.971 224.057 283.981 227.357C284.001 234.08 284.03 234.193 277.135 234.2C269.011 234.207 260.886 234.212 252.761 234.199C247.181 234.19 247.006 234.015 247 228.592C246.991 220.593 246.997 212.593 246.999 204.593Z" fill="#E92026"/>
<path d="M222.068 98.9523C222.816 98.9523 223.575 99.0366 224.31 98.9372C226.98 98.576 227.539 99.8047 227.076 102.2C225.398 110.886 223.841 119.596 222.177 128.285C220.559 136.729 218.764 145.141 217.261 153.605C216.701 156.756 215.36 157.975 212.065 157.924C204.442 157.806 204.499 157.973 205.944 150.526C208.958 134.992 211.928 119.448 214.859 103.898C215.773 99.0498 215.757 98.9873 222.068 98.9523Z" fill="#303091"/>
<path d="M276.842 157.851C276.093 157.846 275.341 157.799 274.596 157.855C271.616 158.076 270.985 156.698 271.535 153.958C273.746 142.949 275.827 131.915 277.946 120.888C279.075 115.007 280.28 109.138 281.261 103.232C281.776 100.131 283.089 98.8177 286.446 98.8866C293.971 99.0412 293.941 98.86 292.538 106.164C289.597 121.478 286.708 136.803 283.767 152.118C282.664 157.862 282.626 157.855 276.842 157.851Z" fill="#303091"/>
<path d="M385.008 204.515C385.006 196.15 385.135 187.782 384.945 179.422C384.865 175.916 386.24 174.625 389.567 174.942C390.557 175.036 391.565 175.01 392.561 174.966C395.23 174.847 396.413 176.068 396.407 178.763C396.369 195.992 396.364 213.221 396.408 230.449C396.416 233.203 395.141 234.297 392.522 234.19C391.4 234.143 390.271 234.129 389.152 234.197C386.129 234.38 384.923 233.051 384.967 229.982C385.089 221.495 385.009 213.004 385.008 204.515Z" fill="#E92026"/>
</g>
<defs>
<clipPath id="clip0_10394_89196">
<rect width="503" height="344" fill="white"/>
</clipPath>
</defs>
</svg>
